<?xml version="1.0" encoding="UTF-8"?>
<svg xmlns="http://www.w3.org/2000/svg" xmlns:xlink="http://www.w3.org/1999/xlink" width="292.05pt" height="343.074pt" viewBox="0 0 292.05 343.074" version="1.1">
<defs>
<clipPath id="clip1">
  <path d="M 57 142 L 208 142 L 208 333.113281 L 57 333.113281 Z M 57 142 "/>
</clipPath>
<clipPath id="clip2">
  <path d="M 139 9.960938 L 251 9.960938 L 251 174 L 139 174 Z M 139 9.960938 "/>
</clipPath>
</defs>
<g id="surface1">
<path style=" stroke:none;fill-rule:nonzero;fill:rgb(0%,0%,0%);fill-opacity:1;" d="M 155.671875 156.878906 C 158.699219 158.609375 161.945312 160.121094 164.972656 161.851562 C 168 163.582031 171.242188 165.3125 174.269531 167.042969 C 177.296875 168.773438 180.542969 170.503906 183.570312 172.234375 C 186.597656 173.964844 189.84375 175.691406 192.871094 177.421875 C 194.816406 178.503906 192.003906 181.101562 190.058594 182.398438 C 188.761719 183.046875 186.816406 184.34375 184.652344 186.074219 C 182.273438 187.589844 179.675781 189.535156 177.296875 191.265625 C 174.488281 193.210938 172.109375 194.941406 169.730469 196.453125 C 167.351562 198.183594 165.402344 199.265625 164.105469 199.914062 C 167.566406 203.375 163.671875 204.671875 158.914062 203.59375 C 156.96875 204.671875 155.238281 205.972656 153.507812 207.050781 C 156.753906 210.078125 155.238281 212.027344 150.914062 212.027344 C 153.292969 214.40625 155.023438 216.136719 156.105469 217.648438 C 157.1875 218.945312 157.402344 219.8125 157.1875 220.460938 C 156.96875 220.894531 155.886719 221.109375 154.15625 220.894531 C 152.425781 220.675781 150.046875 220.246094 146.804688 219.378906 C 145.941406 221.109375 145.074219 223.273438 143.992188 225.867188 C 142.695312 228.460938 141.613281 231.492188 140.316406 234.734375 C 139.019531 238.195312 137.503906 241.65625 135.992188 245.332031 C 134.910156 249.007812 133.613281 252.683594 132.53125 256.578125 C 131.234375 260.253906 130.152344 264.148438 129.285156 267.824219 C 128.421875 271.285156 127.558594 274.746094 127.125 277.988281 C 126.691406 281.234375 126.476562 284.261719 126.691406 286.855469 C 126.90625 289.234375 127.558594 291.613281 128.421875 293.128906 C 130.800781 297.019531 132.746094 303.074219 131.664062 307.617188 C 130.800781 311.292969 128.855469 314.539062 126.476562 316.699219 C 123.878906 318.863281 120.636719 319.945312 117.175781 319.078125 C 119.988281 322.324219 120.636719 326 119.554688 328.164062 C 118.472656 330.324219 115.660156 331.191406 111.769531 329.027344 C 108.308594 327.082031 105.066406 325.351562 101.820312 323.40625 C 98.359375 321.675781 95.117188 319.726562 91.871094 318 C 88.410156 316.050781 84.953125 314.320312 81.925781 312.375 C 78.464844 310.644531 75.21875 308.699219 71.976562 306.96875 C 73.707031 303.722656 75.4375 300.695312 77.167969 297.667969 C 78.894531 294.425781 80.625 291.398438 82.355469 288.152344 C 84.085938 285.125 85.816406 281.882812 87.332031 278.855469 C 89.492188 275.609375 91.222656 272.582031 92.953125 269.335938 C 94.683594 266.308594 96.414062 263.066406 98.144531 260.039062 C 99.875 256.792969 101.605469 253.765625 103.335938 250.523438 C 105.066406 247.496094 106.796875 244.25 108.523438 241.222656 C 110.039062 237.980469 111.984375 234.949219 113.933594 231.921875 C 115.660156 228.679688 117.390625 225.652344 118.90625 222.40625 C 120.851562 219.378906 122.582031 216.136719 124.3125 213.109375 C 126.042969 209.863281 127.773438 206.835938 129.503906 203.59375 C 131.234375 200.5625 132.964844 197.320312 134.695312 194.292969 C 136.425781 191.265625 138.152344 188.019531 139.882812 184.992188 C 141.832031 181.75 143.5625 178.722656 145.289062 175.476562 C 147.019531 172.449219 148.75 169.207031 150.480469 166.175781 C 152.210938 162.933594 153.726562 159.90625 155.671875 156.878906 "/>
<g clip-path="url(#clip1)" clip-rule="nonzero">
<path style="fill:none;stroke-width:0.99628;stroke-linecap:round;stroke-linejoin:miter;stroke:rgb(0%,0%,0%);stroke-opacity:1;stroke-miterlimit:10;" d="M -32.872785 -59.042566 C -29.845441 -60.773035 -26.599347 -62.284754 -23.572004 -64.015222 C -20.54466 -65.745691 -17.302472 -67.47616 -14.275129 -69.206629 C -11.247785 -70.937097 -8.001691 -72.667566 -4.974347 -74.398035 C -1.947004 -76.128504 1.29909 -77.855066 4.326434 -79.585535 C 6.271746 -80.667566 3.459246 -83.265222 1.513934 -84.562097 C 0.217059 -85.210535 -1.728254 -86.50741 -3.892316 -88.237879 C -6.271222 -89.753504 -8.868879 -91.698816 -11.247785 -93.429285 C -14.056379 -95.374597 -16.435285 -97.105066 -18.814191 -98.616785 C -21.193097 -100.347254 -23.142316 -101.429285 -24.439191 -102.077722 C -20.978254 -105.53866 -24.872785 -106.835535 -29.630597 -105.75741 C -31.57591 -106.835535 -33.306379 -108.136316 -35.036847 -109.214441 C -31.790754 -112.241785 -33.306379 -114.191004 -37.630597 -114.191004 C -35.251691 -116.56991 -33.521222 -118.300379 -32.439191 -119.812097 C -31.35716 -121.108972 -31.142316 -121.97616 -31.35716 -122.624597 C -31.57591 -123.058191 -32.657941 -123.273035 -34.38841 -123.058191 C -36.118879 -122.839441 -38.497785 -122.409754 -41.739972 -121.542566 C -42.603254 -123.273035 -43.470441 -125.437097 -44.552472 -128.030847 C -45.849347 -130.624597 -46.931379 -133.655847 -48.228254 -136.898035 C -49.525129 -140.358972 -51.040754 -143.81991 -52.552472 -147.495691 C -53.634504 -151.171472 -54.931379 -154.847254 -56.01341 -158.741785 C -57.310285 -162.417566 -58.392316 -166.312097 -59.259504 -169.987879 C -60.122785 -173.448816 -60.986066 -176.909754 -61.41966 -180.151941 C -61.853254 -183.398035 -62.068097 -186.425379 -61.853254 -189.019129 C -61.63841 -191.398035 -60.986066 -193.776941 -60.122785 -195.292566 C -57.743879 -199.183191 -55.798566 -205.237879 -56.880597 -209.780847 C -57.743879 -213.456629 -59.689191 -216.702722 -62.068097 -218.862879 C -64.665754 -221.026941 -67.907941 -222.108972 -71.368879 -221.241785 C -68.556379 -224.487879 -67.907941 -228.16366 -68.989972 -230.327722 C -70.072004 -232.487879 -72.884504 -233.355066 -76.775129 -231.191004 C -80.236066 -229.245691 -83.478254 -227.515222 -86.724347 -225.56991 C -90.185285 -223.839441 -93.427472 -221.890222 -96.673566 -220.16366 C -100.134504 -218.214441 -103.591535 -216.483972 -106.618879 -214.53866 C -110.079816 -212.808191 -113.32591 -210.862879 -116.568097 -209.13241 C -114.837629 -205.886316 -113.10716 -202.858972 -111.376691 -199.831629 C -109.650129 -196.589441 -107.91966 -193.562097 -106.189191 -190.316004 C -104.458722 -187.28866 -102.728254 -184.046472 -101.212629 -181.019129 C -99.052472 -177.773035 -97.322004 -174.745691 -95.591535 -171.499597 C -93.861066 -168.472254 -92.130597 -165.230066 -90.400129 -162.202722 C -88.66966 -158.956629 -86.939191 -155.929285 -85.208722 -152.687097 C -83.478254 -149.659754 -81.747785 -146.41366 -80.021222 -143.386316 C -78.505597 -140.144129 -76.560285 -137.112879 -74.611066 -134.085535 C -72.884504 -130.843347 -71.154035 -127.816004 -69.63841 -124.56991 C -67.693097 -121.542566 -65.962629 -118.300379 -64.23216 -115.273035 C -62.501691 -112.026941 -60.771222 -108.999597 -59.040754 -105.75741 C -57.310285 -102.72616 -55.579816 -99.483972 -53.849347 -96.456629 C -52.118879 -93.429285 -50.392316 -90.183191 -48.661847 -87.155847 C -46.712629 -83.91366 -44.98216 -80.886316 -43.255597 -77.640222 C -41.525129 -74.612879 -39.79466 -71.370691 -38.064191 -68.339441 C -36.333722 -65.097254 -34.818097 -62.06991 -32.872785 -59.042566 " transform="matrix(1,0,0,-1,188.54466,97.83634)"/>
</g>
<path style="fill-rule:nonzero;fill:rgb(0%,0%,0%);fill-opacity:1;stroke-width:0.99628;stroke-linecap:round;stroke-linejoin:miter;stroke:rgb(0%,0%,0%);stroke-opacity:1;stroke-miterlimit:10;" d="M -32.872785 -59.042566 C -35.900129 -57.312097 -39.146222 -55.581629 -42.173566 -53.85116 C -45.20091 -52.120691 -48.443097 -50.390222 -51.470441 -48.659754 C -54.501691 -46.929285 -57.743879 -45.198816 -60.771222 -43.468347 C -63.798566 -41.741785 -67.04466 -40.011316 -70.072004 -38.710535 C -72.017316 -37.41366 -73.099347 -41.089441 -72.884504 -43.253504 C -72.884504 -44.769129 -72.884504 -47.148035 -73.099347 -49.956629 C -73.314191 -52.769129 -73.532941 -55.796472 -73.747785 -59.042566 C -73.962629 -62.284754 -74.181379 -65.312097 -74.181379 -68.124597 C -74.396222 -70.937097 -74.396222 -73.316004 -74.181379 -74.827722 C -78.939191 -73.530847 -78.072004 -77.640222 -74.396222 -81.10116 C -74.396222 -83.046472 -74.611066 -85.210535 -74.611066 -87.374597 C -78.939191 -86.292566 -79.802472 -88.452722 -77.423566 -92.347254 C -80.66966 -91.480066 -83.048566 -90.831629 -84.779035 -90.831629 C -86.509504 -90.616785 -87.587629 -90.831629 -87.806379 -91.265222 C -88.236066 -91.91366 -87.806379 -92.780847 -86.724347 -94.077722 C -85.642316 -95.589441 -83.911847 -97.31991 -81.532941 -99.698816 C -82.614972 -101.214441 -83.911847 -103.159754 -85.642316 -105.53866 C -87.157941 -107.702722 -89.103254 -110.515222 -91.267316 -113.323816 C -93.427472 -116.136316 -95.591535 -119.16366 -97.970441 -122.191004 C -100.564191 -125.218347 -102.943097 -128.245691 -105.540754 -131.276941 C -108.134504 -134.304285 -110.947004 -137.331629 -113.540754 -139.925379 C -116.13841 -142.523035 -118.73216 -145.116785 -121.32591 -147.062097 C -123.704816 -149.22616 -126.083722 -150.956629 -128.462629 -152.03866 C -130.626691 -153.335535 -132.790754 -153.983972 -134.736066 -153.983972 C -139.279035 -154.198816 -145.548566 -155.714441 -148.79466 -159.175379 C -151.38841 -161.554285 -153.118879 -165.015222 -153.767316 -168.25741 C -154.20091 -171.499597 -153.552472 -174.745691 -150.954816 -177.339441 C -155.282941 -176.691004 -158.525129 -177.987879 -159.822004 -180.151941 C -161.118879 -182.097254 -160.255597 -184.909754 -156.361066 -187.073816 C -153.118879 -189.019129 -149.657941 -190.749597 -146.415754 -192.69491 C -143.16966 -194.425379 -139.927472 -196.370691 -136.466535 -198.10116 C -133.220441 -200.050379 -129.978254 -201.780847 -126.517316 -203.72616 C -123.275129 -205.456629 -120.029035 -207.401941 -116.568097 -209.13241 C -114.837629 -205.886316 -113.10716 -202.858972 -111.376691 -199.831629 C -109.650129 -196.589441 -107.91966 -193.562097 -106.189191 -190.316004 C -104.458722 -187.28866 -102.728254 -184.046472 -101.212629 -181.019129 C -99.052472 -177.773035 -97.322004 -174.745691 -95.591535 -171.499597 C -93.861066 -168.472254 -92.130597 -165.230066 -90.400129 -162.202722 C -88.66966 -158.956629 -86.939191 -155.929285 -85.208722 -152.687097 C -83.478254 -149.659754 -81.747785 -146.41366 -80.021222 -143.386316 C -78.505597 -140.144129 -76.560285 -137.112879 -74.611066 -134.085535 C -72.884504 -130.843347 -71.154035 -127.816004 -69.63841 -124.56991 C -67.693097 -121.542566 -65.962629 -118.300379 -64.23216 -115.273035 C -62.501691 -112.026941 -60.771222 -108.999597 -59.040754 -105.75741 C -57.310285 -102.72616 -55.579816 -99.483972 -53.849347 -96.456629 C -52.118879 -93.429285 -50.392316 -90.183191 -48.661847 -87.155847 C -46.712629 -83.91366 -44.98216 -80.886316 -43.255597 -77.640222 C -41.525129 -74.612879 -39.79466 -71.370691 -38.064191 -68.339441 C -36.333722 -65.097254 -34.818097 -62.06991 -32.872785 -59.042566 " transform="matrix(1,0,0,-1,188.54466,97.83634)"/>
<path style="fill-rule:nonzero;fill:rgb(0%,0%,0%);fill-opacity:1;stroke-width:0.99628;stroke-linecap:round;stroke-linejoin:miter;stroke:rgb(0%,0%,0%);stroke-opacity:1;stroke-miterlimit:10;" d="M -121.32591 -154.847254 C -119.595441 -151.81991 -120.677472 -147.929285 -123.923566 -146.41366 C -126.95091 -144.683191 -130.841535 -145.765222 -132.572004 -148.792566 C -134.302472 -151.81991 -133.005597 -155.714441 -129.978254 -157.44491 C -126.95091 -159.175379 -123.056379 -158.093347 -121.32591 -154.847254 Z M -121.32591 -154.847254 " transform="matrix(1,0,0,-1,188.54466,97.83634)"/>
<path style="fill-rule:nonzero;fill:rgb(0%,0%,0%);fill-opacity:1;stroke-width:0.99628;stroke-linecap:round;stroke-linejoin:miter;stroke:rgb(0%,0%,0%);stroke-opacity:1;stroke-miterlimit:10;" d="M -56.661847 -190.534754 C -55.364972 -187.503504 -56.228254 -183.612879 -59.259504 -182.097254 C -62.286847 -180.366785 -66.177472 -181.448816 -67.907941 -184.47616 C -69.63841 -187.503504 -68.775129 -191.398035 -65.529035 -193.128504 C -62.286847 -194.858972 -58.392316 -193.991785 -56.661847 -190.534754 Z M -56.661847 -190.534754 " transform="matrix(1,0,0,-1,188.54466,97.83634)"/>
<path style=" stroke:none;fill-rule:nonzero;fill:rgb(0%,0%,0%);fill-opacity:1;" d="M 146.871094 157.335938 C 148.769531 158.914062 150.703125 160.519531 152.671875 162.160156 C 154.679688 163.828125 156.722656 165.527344 158.808594 167.257812 C 161.164062 169.214844 164.5 168.246094 166.234375 165.0625 C 168.078125 161.679688 169.910156 158.316406 171.734375 154.976562 C 173.546875 151.648438 175.351562 148.34375 177.144531 145.054688 C 178.925781 141.78125 180.699219 138.53125 182.460938 135.292969 C 184.214844 132.078125 185.960938 128.878906 187.695312 125.695312 C 189.417969 122.53125 191.132812 119.382812 192.84375 116.253906 C 194.539062 113.136719 196.230469 110.039062 197.910156 106.957031 C 199.578125 103.894531 201.238281 100.847656 202.890625 97.816406 C 204.535156 94.800781 206.171875 91.800781 207.796875 88.816406 C 209.414062 85.847656 211.023438 82.894531 212.625 79.957031 C 214.21875 77.035156 215.800781 74.128906 217.378906 71.234375 C 218.949219 68.359375 220.507812 65.496094 222.058594 62.648438 C 223.605469 59.820312 225.140625 57 226.667969 54.199219 C 228.1875 51.40625 229.699219 48.632812 231.203125 45.871094 C 232.703125 43.125 234.191406 40.390625 235.675781 37.671875 C 237.152344 34.96875 238.617188 32.273438 240.078125 29.59375 C 241.527344 26.929688 242.976562 24.277344 244.414062 21.636719 C 245.746094 19.191406 244.496094 16.949219 241.683594 16.640625 C 239.175781 16.367188 236.707031 16.09375 234.277344 15.828125 C 231.890625 15.566406 229.539062 15.304688 227.226562 15.050781 C 224.71875 14.777344 221.667969 16.382812 220.386719 18.628906 C 219.007812 21.054688 217.617188 23.492188 216.226562 25.9375 C 214.828125 28.398438 213.417969 30.867188 212.007812 33.351562 C 210.589844 35.839844 209.160156 38.347656 207.730469 40.863281 C 206.289062 43.390625 204.84375 45.933594 203.390625 48.484375 C 201.929688 51.046875 200.464844 53.625 198.992188 56.210938 C 197.511719 58.8125 196.023438 61.425781 194.527344 64.050781 C 193.027344 66.6875 191.515625 69.339844 190 72.003906 C 188.476562 74.679688 186.945312 77.367188 185.410156 80.070312 C 183.863281 82.785156 182.308594 85.515625 180.75 88.253906 C 179.179688 91.011719 177.601562 93.777344 176.019531 96.558594 C 174.429688 99.355469 172.828125 102.164062 171.222656 104.988281 C 169.605469 107.824219 167.984375 110.675781 166.351562 113.542969 C 164.710938 116.421875 163.066406 119.316406 161.410156 122.226562 C 159.742188 125.148438 158.070312 128.089844 156.390625 131.042969 C 154.699219 134.007812 153 136.992188 151.296875 139.992188 C 149.578125 143.003906 147.855469 146.03125 146.121094 149.078125 C 144.492188 151.941406 144.804688 155.617188 146.871094 157.335938 "/>
<g clip-path="url(#clip2)" clip-rule="nonzero">
<path style="fill:none;stroke-width:0.3985;stroke-linecap:round;stroke-linejoin:miter;stroke:rgb(0%,0%,0%);stroke-opacity:1;stroke-miterlimit:10;" d="M -41.673566 -59.499597 C -39.775129 -61.077722 -37.841535 -62.683191 -35.872785 -64.323816 C -33.864972 -65.991785 -31.822004 -67.691004 -29.736066 -69.421472 C -27.380597 -71.378504 -24.04466 -70.409754 -22.310285 -67.22616 C -20.466535 -63.843347 -18.634504 -60.480066 -16.810285 -57.140222 C -14.997785 -53.812097 -13.193097 -50.50741 -11.400129 -47.218347 C -9.618879 -43.94491 -7.845441 -40.69491 -6.083722 -37.456629 C -4.329816 -34.241785 -2.583722 -31.042566 -0.849347 -27.858972 C 0.873309 -24.69491 2.588153 -21.546472 4.29909 -18.417566 C 5.994403 -15.300379 7.685809 -12.202722 9.365496 -9.120691 C 11.033465 -6.058191 12.693621 -3.011316 14.345965 0.0199338 C 15.990496 3.035559 17.627215 6.035559 19.252215 9.019934 C 20.869403 11.988684 22.478778 14.941809 24.08034 17.879309 C 25.67409 20.801184 27.256121 23.707434 28.834246 26.601965 C 30.404559 29.476965 31.963153 32.340246 33.513934 35.187903 C 35.060809 38.016028 36.595965 40.83634 38.123309 43.637121 C 39.64284 46.43009 41.154559 49.203528 42.658465 51.965246 C 44.158465 54.71134 45.646746 57.445715 47.131121 60.164465 C 48.607684 62.86759 50.072528 65.562903 51.533465 68.24259 C 52.982684 70.906653 54.431903 73.558996 55.869403 76.199621 C 57.201434 78.644934 55.951434 80.887121 53.138934 81.195715 C 50.631121 81.469153 48.162371 81.74259 45.732684 82.008215 C 43.345965 82.269934 40.994403 82.531653 38.681903 82.785559 C 36.17409 83.058996 33.123309 81.453528 31.842059 79.207434 C 30.463153 76.781653 29.072528 74.344153 27.681903 71.89884 C 26.283465 69.437903 24.873309 66.969153 23.463153 64.484778 C 22.045184 61.996496 20.615496 59.488684 19.185809 56.973059 C 17.744403 54.445715 16.29909 51.902746 14.845965 49.351965 C 13.385028 46.789465 11.920184 44.21134 10.447528 41.625403 C 8.967059 39.02384 7.478778 36.410559 5.982684 33.785559 C 4.482684 31.14884 2.970965 28.496496 1.45534 25.832434 C -0.0680975 23.156653 -1.599347 20.469153 -3.134504 17.766028 C -4.681379 15.051184 -6.236066 12.320715 -7.79466 9.582434 C -9.364972 6.824621 -10.943097 4.058996 -12.525129 1.277746 C -14.114972 -1.519129 -15.716535 -4.327722 -17.322004 -7.151941 C -18.939191 -9.987879 -20.560285 -12.839441 -22.193097 -15.706629 C -23.833722 -18.585535 -25.478254 -21.480066 -27.134504 -24.390222 C -28.802472 -27.312097 -30.474347 -30.253504 -32.154035 -33.206629 C -33.845441 -36.171472 -35.54466 -39.155847 -37.247785 -42.155847 C -38.966535 -45.167566 -40.689191 -48.19491 -42.423566 -51.241785 C -44.052472 -54.105066 -43.739972 -57.780847 -41.673566 -59.499597 " transform="matrix(1,0,0,-1,188.54466,97.83634)"/>
</g>
<path style="fill-rule:nonzero;fill:rgb(0%,0%,0%);fill-opacity:1;stroke-width:0.3985;stroke-linecap:round;stroke-linejoin:miter;stroke:rgb(0%,0%,0%);stroke-opacity:1;stroke-miterlimit:10;" d="M -24.318097 32.078528 C -21.759504 31.144934 -19.13841 30.191809 -16.462629 29.215246 C -13.716535 28.219153 -10.911847 27.195715 -8.036847 26.14884 C -5.091535 25.078528 -2.07591 23.980871 1.013934 22.855871 C 4.181903 21.699621 7.431903 20.516028 10.76784 19.30509 C 14.185809 18.058996 17.697528 16.781653 21.302996 15.469153 C 25.006121 14.121496 28.810809 12.738684 32.720965 11.316809 C 36.744403 9.848059 40.881121 8.344153 45.138934 6.793371 C 49.525653 5.199621 54.041278 3.551184 58.693621 1.859778 C 62.224871 0.574621 66.42409 2.113684 68.025653 5.320715 C 69.467059 8.199621 70.900653 11.062903 72.326434 13.910559 C 73.744403 16.746496 75.154559 19.566809 76.560809 22.375403 C 78.095965 25.449621 76.365496 28.726965 72.791278 29.664465 C 68.041278 30.910559 63.431903 32.121496 58.951434 33.293371 C 54.595965 34.437903 50.36159 35.547278 46.244403 36.629309 C 42.23659 37.68009 38.338153 38.703528 34.541278 39.699621 C 30.842059 40.668371 27.232684 41.613684 23.724871 42.535559 C 20.295184 43.437903 16.951434 44.308996 13.693621 45.168371 C 10.510028 46.004309 7.404559 46.816809 4.369403 47.613684 C 1.408465 48.391028 -1.489972 49.152746 -4.318097 49.894934 C -7.083722 50.61759 -9.790754 51.328528 -12.435285 52.019934 C -14.341535 52.52384 -16.915754 51.187903 -18.197004 49.051184 C -19.361066 47.105871 -20.532941 45.152746 -21.708722 43.195715 C -22.88841 41.226965 -24.072004 39.254309 -25.259504 37.27384 C -26.579816 35.070715 -26.173566 32.750403 -24.318097 32.078528 " transform="matrix(1,0,0,-1,188.54466,97.83634)"/>
</g>
</svg>
